# xmcd
#
# Track frame offsets: 
#        150
#        20344
#        41383
#        65870
#        83147
#        102166
#        122874
#        141980
#        166554
#        183866
#        201735
#        220806
#        238640
#        255934
#        276137
#        296862
#        308775
#        336437
#
# Disc length: 4764 seconds
#
# Revision: 0
# Processed by: cddbd v1.5.2PL0 Copyright (c) Steve Scherf et al.
# Submitted via: ExactAudioCopy v1.0b2
#
DISCID=0e129a12
DTITLE=Joe Cocker - Best Ballads
DYEAR=2001
DGENRE=Blues
TTITLE0=Naked Without You
TTITLE1=N'oublies Jamais
TTITLE2=A Whiter Shade Of Pale
TTITLE3=Up Where We Belong
TTITLE4=You Can Leave Your Hat On
TTITLE5=Now That The Magic Has Gone
TTITLE6=A Woman Has A Man
TTITLE7=Don't Let The Sun Go Down On Me
TTITLE8=Crazy In Love
TTITLE9=When The Night Comes
TTITLE10=Now That You're Gone
TTITLE11=Sorry Seems To Be The Hardest Word
TTITLE12=Summer In The City
TTITLE13=My Father's Son
TTITLE14=The One
TTITLE15=You Are So Beatiful
TTITLE16=St James Infirmary 'Blues'
TTITLE17=What Do You Say
EXTD=
EXTT0=
EXTT1=
EXTT2=
EXTT3=
EXTT4=
EXTT5=
EXTT6=
EXTT7=
EXTT8=
EXTT9=
EXTT10=
EXTT11=
EXTT12=
EXTT13=
EXTT14=
EXTT15=
EXTT16=
EXTT17=
PLAYORDER=
